<svg xmlns="http://www.w3.org/2000/svg" xmlns:xlink="http://www.w3.org/1999/xlink" version="1.1" x="0px" y="0px" viewBox="0 0 512 640" style="enable-background:new 0 0 512 512;" xml:space="preserve"><g><g><g><g><path d="M101,488.5H51v-300h50V488.5z M61,478.5h30v-280H61V478.5z"/></g><g><rect x="26" y="478.5" width="100" height="10"/></g><g><path d="M116,198.5H46c-13.785,0-25-11.215-25-25s11.215-25,25-25h70c13.785,0,25,11.215,25,25      S129.785,198.5,116,198.5z M46,158.5c-8.271,0-15,6.729-15,15s6.729,15,15,15h70c8.271,0,15-6.729,15-15s-6.729-15-15-15H46z"/></g><g><path d="M81,158.5c-22.056,0-40-17.944-40-40s17.944-40,40-40s40,17.944,40,40S103.056,158.5,81,158.5z       M81,88.5c-16.542,0-30,13.458-30,30s13.458,30,30,30s30-13.458,30-30S97.542,88.5,81,88.5z"/></g><g><path d="M451,488.5h-50v-300h50V488.5z M411,478.5h30v-280h-30V478.5z"/></g><g><rect x="376" y="478.5" width="100" height="10"/></g><g><path d="M466,198.5h-70c-13.785,0-25-11.215-25-25s11.215-25,25-25h70c13.785,0,25,11.215,25,25      S479.785,198.5,466,198.5z M396,158.5c-8.271,0-15,6.729-15,15s6.729,15,15,15h70c8.271,0,15-6.729,15-15s-6.729-15-15-15H396z"/></g><g><path d="M431,158.5c-22.056,0-40-17.944-40-40s17.944-40,40-40s40,17.944,40,40S453.056,158.5,431,158.5z       M431,88.5c-16.542,0-30,13.458-30,30s13.458,30,30,30s30-13.458,30-30S447.542,88.5,431,88.5z"/></g><g><path d="M161,238.5H91v-50h27c23.71,0,43,19.29,43,43V238.5z M101,228.5h49.865      c-1.52-16.796-15.679-30-32.865-30h-17V228.5z"/></g><g><path d="M411,238.5h-70v-7c0-23.71,19.29-43,43-43h27V238.5z M351.135,228.5H401v-30h-17      C366.814,198.5,352.655,211.704,351.135,228.5z"/></g><g><path d="M251,328.5c-55.14,0-100-44.86-100-100h10c0,49.626,40.374,90,90,90s90-40.374,90-90h10      C351,283.64,306.141,328.5,251,328.5z"/></g><g><path d="M191,103.5h-10c0-19.299-15.701-35-35-35v-10c19.299,0,35-15.701,35-35h10c0,19.299,15.701,35,35,35v10      C206.701,68.5,191,84.201,191,103.5z M166.604,63.5c8.3,4.293,15.103,11.096,19.396,19.396      c4.293-8.3,11.096-15.103,19.396-19.396c-8.3-4.293-15.103-11.096-19.396-19.396C181.707,52.404,174.904,59.207,166.604,63.5z"/></g><g><path d="M281,193.5h-10c0-19.299-15.701-35-35-35v-10c19.299,0,35-15.701,35-35h10c0,19.299,15.701,35,35,35v10      C296.701,158.5,281,174.201,281,193.5z M256.604,153.5c8.3,4.293,15.103,11.096,19.396,19.396      c4.293-8.3,11.096-15.103,19.396-19.396c-8.3-4.293-15.103-11.096-19.396-19.396C271.707,142.404,264.904,149.207,256.604,153.5      z"/></g></g></g></g><text x="0" y="527" fill="#000000" font-size="5px" font-weight="bold" font-family="'Helvetica Neue', Helvetica, Arial-Unicode, Arial, Sans-serif">Created by Icon Market</text><text x="0" y="532" fill="#000000" font-size="5px" font-weight="bold" font-family="'Helvetica Neue', Helvetica, Arial-Unicode, Arial, Sans-serif">from the Noun Project</text></svg>