<svg width="24" height="24" viewBox="0 0 24 24" fill="none" xmlns="http://www.w3.org/2000/svg">
  <path fill-rule="evenodd" clip-rule="evenodd" d="M0.25 7C0.25 5.48122 1.48122 4.25 3 4.25H21C22.5188 4.25 23.75 5.48122 23.75 7V17C23.75 18.5188 22.5188 19.75 21 19.75H3C1.48122 19.75 0.25 18.5188 0.25 17V7ZM3 5.75C2.30964 5.75 1.75 6.30964 1.75 7V8H22.25V7C22.25 6.30964 21.6904 5.75 21 5.75H3ZM1.75 17V11H22.25V17C22.25 17.6904 21.6904 18.25 21 18.25H3C2.30964 18.25 1.75 17.6904 1.75 17ZM17 15.25C16.5858 15.25 16.25 15.5858 16.25 16C16.25 16.4142 16.5858 16.75 17 16.75H20C20.4142 16.75 20.75 16.4142 20.75 16C20.75 15.5858 20.4142 15.25 20 15.25H17Z" fill="black"/>
</svg>
