<svg width="24" height="24" viewBox="0 0 24 24" fill="none" xmlns="http://www.w3.org/2000/svg">
<path fill-rule="evenodd" clip-rule="evenodd" d="M2 1.25C1.0335 1.25 0.25 2.0335 0.25 3V17C0.25 17.9665 1.0335 18.75 2 18.75H4.75V22C4.75 22.2766 4.90224 22.5307 5.14611 22.6613C5.38997 22.7918 5.68588 22.7775 5.91603 22.624L11.6641 18.792C11.7052 18.7646 11.7534 18.75 11.8028 18.75H22C22.9665 18.75 23.75 17.9665 23.75 17V3C23.75 2.0335 22.9665 1.25 22 1.25H2ZM1.75 3C1.75 2.86193 1.86193 2.75 2 2.75H22C22.1381 2.75 22.25 2.86193 22.25 3V17C22.25 17.1381 22.1381 17.25 22 17.25H11.8028C11.4573 17.25 11.1195 17.3523 10.8321 17.5439L6.25 20.5986V18C6.25 17.5858 5.91421 17.25 5.5 17.25H2C1.86193 17.25 1.75 17.1381 1.75 17V3ZM7 8.5C6.17157 8.5 5.5 9.17157 5.5 10C5.5 10.8284 6.17157 11.5 7 11.5C7.82843 11.5 8.5 10.8284 8.5 10C8.5 9.17157 7.82843 8.5 7 8.5ZM10.5 10C10.5 9.17157 11.1716 8.5 12 8.5C12.8284 8.5 13.5 9.17157 13.5 10C13.5 10.8284 12.8284 11.5 12 11.5C11.1716 11.5 10.5 10.8284 10.5 10ZM17 8.5C16.1716 8.5 15.5 9.17157 15.5 10C15.5 10.8284 16.1716 11.5 17 11.5C17.8284 11.5 18.5 10.8284 18.5 10C18.5 9.17157 17.8284 8.5 17 8.5Z" fill="black"/>
</svg>
