<svg width="24" height="24" viewBox="0 0 24 24" fill="none" xmlns="http://www.w3.org/2000/svg">
    <path fill-rule="evenodd" clip-rule="evenodd" d="M2.24878 1C2.24878 0.585786 2.58457 0.25 2.99878 0.25H18.9988C19.413 0.25 19.7488 0.585786 19.7488 1V8.04163C19.7488 8.45584 19.413 8.79163 18.9988 8.79163C18.5846 8.79163 18.2488 8.45584 18.2488 8.04163V1.75H3.74878V20.25H6.68579C7.10001 20.25 7.43579 20.5858 7.43579 21C7.43579 21.4142 7.10001 21.75 6.68579 21.75H2.99878C2.58457 21.75 2.24878 21.4142 2.24878 21V1ZM16.0813 12.75C14.8387 12.75 13.8313 13.7574 13.8313 15C13.8313 16.2426 14.8387 17.25 16.0813 17.25C17.3239 17.25 18.3313 16.2426 18.3313 15C18.3313 13.7574 17.3239 12.75 16.0813 12.75ZM18.5629 17.8115C19.3407 17.1244 19.8313 16.1195 19.8313 15C19.8313 12.9289 18.1524 11.25 16.0813 11.25C14.0102 11.25 12.3313 12.9289 12.3313 15C12.3313 16.1195 12.8219 17.1244 13.5997 17.8115C11.997 18.5795 10.8057 20.0684 10.4448 21.8581C10.2212 22.9672 11.1666 23.75 12.0813 23.75H20.0813C20.9959 23.75 21.9414 22.9672 21.7178 21.8581C21.3569 20.0684 20.1656 18.5795 18.5629 17.8115ZM16.0813 18.75C14.0241 18.75 12.3068 20.2123 11.9152 22.1546C11.9137 22.1622 11.9138 22.1663 11.9138 22.1676C11.9139 22.1691 11.9141 22.1699 11.9144 22.1708C11.9148 22.1723 11.9176 22.1803 11.929 22.1925C11.9543 22.2193 12.0077 22.25 12.0813 22.25H20.0813C20.1548 22.25 20.2083 22.2193 20.2336 22.1925C20.245 22.1803 20.2478 22.1723 20.2482 22.1708C20.2485 22.1699 20.2487 22.1691 20.2487 22.1676L20.2487 22.1651L20.2484 22.1609L20.2474 22.1546C19.8557 20.2123 18.1385 18.75 16.0813 18.75ZM5.99878 4.25C5.58457 4.25 5.24878 4.58579 5.24878 5C5.24878 5.41421 5.58457 5.75 5.99878 5.75H15.4988C15.913 5.75 16.2488 5.41421 16.2488 5C16.2488 4.58579 15.913 4.25 15.4988 4.25H5.99878ZM5.24878 8C5.24878 7.58579 5.58457 7.25 5.99878 7.25H15.4988C15.913 7.25 16.2488 7.58579 16.2488 8C16.2488 8.41421 15.913 8.75 15.4988 8.75H5.99878C5.58457 8.75 5.24878 8.41421 5.24878 8ZM5.99878 10.25C5.58457 10.25 5.24878 10.5858 5.24878 11C5.24878 11.4142 5.58457 11.75 5.99878 11.75H9.49878C9.91299 11.75 10.2488 11.4142 10.2488 11C10.2488 10.5858 9.91299 10.25 9.49878 10.25H5.99878Z" fill="black"/>
</svg>
