<svg height="217" preserveAspectRatio="xMidYMid" viewBox="0 0 109 217" width="109" xmlns="http://www.w3.org/2000/svg"><g fill-rule="evenodd"><path d="m108.791 39.957c0-22.068-11.321-39.959-25.289-39.964-13.968.005-25.288 17.896-25.288 39.964 0 11.353 3.011 20.153 7.822 26.043h-.029s.068.063.14.128c1.363 1.647 2.869 3.055 4.492 4.229.727.706 1.441 1.422 2.068 2.08 5.428 5.686 5.894 8.381 5.894 8.381 4.934 28.737-4.709 88.906-7.728 112.255-3.013 23.306 12.571 23.797 12.629 23.799.058-.002 15.641-.493 12.629-23.799-3.018-23.349-12.662-83.518-7.728-112.255 0 0 .467-2.695 5.893-8.381.628-.658 1.344-1.374 2.07-2.08 1.622-1.174 3.129-2.582 4.492-4.229.071-.065.14-.128.14-.128h-.031c4.812-5.89 7.824-14.69 7.824-26.043z" fill="#fbb713"/><path d="m27.979 193.073c-3.018-23.349-12.661-83.518-7.728-112.255 0 0 1.349-7.859 6.632-7.859 3.43 0 3.808-6.959 3.808-6.959s.251-64.66-1.733-64.66c-.478 0-.791 0-1.034 0 0 0-1.698 22.732-1.698 63.088 0 0-.188 2.245-1.712 2.245-1.525 0-1.823-2.169-1.823-2.169s-.88-63.178-2.861-63.178c-.424 0-.686 0-.866 0 0 0-1.506 21.348-1.508 63.081 0 .026.011.048.011.077 0 1.377-.928 2.489-2.08 2.515 0 0-.042.049-.042.049s-.04-.049-.04-.049c-1.152-.026-2.082-1.138-2.082-2.515 0-.029.013-.051.013-.077-.002-41.733-1.508-63.081-1.508-63.081-.181 0-.443 0-.865 0-1.982 0-2.863 63.178-2.863 63.178s-.298 2.169-1.822 2.169-1.712-2.245-1.712-2.245c0-40.356-1.698-63.088-1.698-63.088-.244 0-.557 0-1.035 0-1.983 0-1.732 64.66-1.732 64.66s.377 6.959 3.807 6.959c5.283 0 6.631 7.859 6.631 7.859 4.934 28.737-4.708 88.906-7.728 112.255-3.017 23.35 12.634 23.799 12.634 23.799s15.653-.449 12.634-23.799z" fill="#ff3a2f"/><g fill="#020403"><path d="m15.345 209.25c-.999 0-1.807-.809-1.807-1.808 0-.998.808-1.808 1.807-1.808 1.245 0 2.215-.471 3.055-1.484 3.066-3.7 5.362-15.291-1.106-49.498 0 0-.212-1.117-.212-1.117-5.291-28.405-2.372-59.595-.159-75.658.134-.988 1.018-1.678 2.036-1.544.989.135 1.681 1.048 1.543 2.037-2.181 15.846-5.065 46.598.134 74.502 0 0 .208 1.108.208 1.108 5.48 28.972 5.59 46.138.337 52.477-1.511 1.827-3.531 2.793-5.836 2.793z" opacity=".35"/><path d="m88.66 78.356s-.291 2.064-.799 5.671c-.484 3.583-1.086 8.748-1.6 14.949-1.031 12.399-1.577 29.083.32 45.599.959 8.221 2.756 16.422 3.665 24.216.994 7.778 1.555 15.1 1.403 21.383-.161 6.241-1.074 11.62-3.273 14.653-1.081 1.504-2.434 2.23-3.39 2.432-.959.183-1.486.183-1.486.183s.53-.013 1.475-.222c.944-.226 2.254-.98 3.273-2.484 2.08-3.03 2.845-8.37 2.836-14.569-.017-6.239-.772-13.504-1.971-21.213-1.112-7.731-3.12-15.816-4.325-24.149-2.368-16.632-2.271-33.486-1.57-46.035.351-6.285.816-11.501 1.211-15.169.411-3.633.646-5.71.646-5.71s3.585.465 3.585.465z" opacity=".35"/><path d="m101.228 36.938c0 16.467-7.935 29.819-17.726 29.819s-17.726-13.352-17.726-29.819c0-16.463 7.935-29.815 17.726-29.815s17.726 13.352 17.726 29.815z" opacity=".25"/></g><path d="m87.099 23.29c0 6.35-3.06 11.5-6.836 11.5s-6.838-5.15-6.838-11.5 3.062-11.5 6.838-11.5 6.836 5.15 6.836 11.5z" fill="#fff"/><path d="m98.967 16.771s.375 1.074.891 3.089c.5 1.991 1.083 4.866 1.378 8.344.151 1.74.231 3.626.204 5.619-.062 2.061-.142 3.996-.421 6.228-.523 4.323-1.524 8.864-3.322 13.142-.907 2.13-1.96 4.206-3.259 6.092-1.331 1.855-2.762 3.637-4.55 4.941-1.751 1.327-3.724 2.261-5.726 2.614-2.006.266-3.947.048-5.567-.638-3.256-1.33-5.177-3.615-6.401-5.138-1.2-1.584-1.743-2.581-1.743-2.581s.594.97 1.864 2.485c1.284 1.449 3.315 3.601 6.475 4.706 1.555.573 3.374.672 5.219.342 1.829-.422 3.597-1.37 5.161-2.682 1.599-1.285 2.867-3.04 4.035-4.849 1.14-1.845 2.044-3.873 2.808-5.945 1.511-4.156 2.253-8.59 2.544-12.697.159-1.99.145-4.16.107-5.986-.069-1.898-.234-3.684-.459-5.318-.443-3.273-1.125-5.93-1.681-7.754-.554-1.797-.977-2.843-.977-2.843-.375-.927.073-1.98.999-2.355.925-.374 1.979.072 2.353.999.01.025.02.05.028.074 0 0 .04.111.04.111z" fill="#050606" opacity=".45"/></g></svg>